<?xml version="1.0" ?><!DOCTYPE svg  PUBLIC '-//W3C//DTD SVG 1.1//EN'  'http://www.w3.org/Graphics/SVG/1.1/DTD/svg11.dtd'><svg height="100%" style="fill-rule:evenodd;clip-rule:evenodd;stroke-linejoin:round;stroke-miterlimit:2;" version="1.1" viewBox="0 0 32 32" width="100%" xml:space="preserve" xmlns="http://www.w3.org/2000/svg" xmlns:serif="http://www.serif.com/" xmlns:xlink="http://www.w3.org/1999/xlink"><path d="M22.554,13.503c-3.552,-2.365 -10.056,-6.696 -13.914,-9.265c-0.921,-0.613 -2.104,-0.67 -3.079,-0.148c-0.975,0.522 -1.584,1.539 -1.584,2.645l0,18.53c0,1.106 0.609,2.123 1.584,2.645c0.975,0.522 2.158,0.465 3.079,-0.148c3.858,-2.569 10.362,-6.9 13.914,-9.265c0.836,-0.556 1.338,-1.493 1.338,-2.497c-0,-1.004 -0.502,-1.941 -1.338,-2.497l0,-0Z"/><path d="M26.003,4.987l-0.003,22c-0,0.552 0.448,1.001 1,1.001c0.552,-0 1,-0.448 1,-1l0.003,-22c-0,-0.552 -0.448,-1 -1,-1c-0.552,-0 -1,0.448 -1,0.999Z"/></svg>