<?xml version="1.0" ?><!DOCTYPE svg  PUBLIC '-//W3C//DTD SVG 1.1//EN'  'http://www.w3.org/Graphics/SVG/1.1/DTD/svg11.dtd'><svg height="100%" style="fill-rule:evenodd;clip-rule:evenodd;stroke-linejoin:round;stroke-miterlimit:2;" version="1.1" viewBox="0 0 32 32" width="100%" xml:space="preserve" xmlns="http://www.w3.org/2000/svg" xmlns:serif="http://www.serif.com/" xmlns:xlink="http://www.w3.org/1999/xlink"><path d="M9.441,13.504c-0.834,0.556 -1.335,1.493 -1.335,2.496c-0,1.003 0.501,1.94 1.335,2.496l13.895,9.263c0.92,0.614 2.104,0.671 3.08,0.149c0.975,-0.522 1.584,-1.539 1.584,-2.645l-0,-18.526c-0,-1.106 -0.609,-2.123 -1.584,-2.645c-0.976,-0.522 -2.16,-0.465 -3.08,0.149l-13.895,9.263Z"/><path d="M3.977,4.987l-0.003,22c0,0.552 0.448,1.001 1,1.001c0.552,-0 1,-0.448 1,-1l0.003,-22c0.001,-0.552 -0.447,-1 -0.999,-1c-0.552,-0 -1,0.448 -1.001,0.999Z"/></svg>